<svg xmlns="http://www.w3.org/2000/svg" width="525" height="23" viewBox="0 0 525 23" fill="none"><path fill-rule="evenodd" clip-rule="evenodd" d="M35.3633 0.20881C33.3482 0.296363 31.612 0.891217 30.3461 1.92774C30.1088 2.12197 29.6572 2.58243 29.4823 2.80838C28.8808 3.58537 28.5347 4.4554 28.4089 5.50703C28.3834 5.72024 28.3838 6.4704 28.4095 6.65826C28.5824 7.92144 29.241 8.89928 30.5331 9.81117C30.9634 10.1149 31.3034 10.3204 32.2802 10.8673C32.6442 11.071 33.0303 11.2916 33.1383 11.3575C33.9875 11.8756 34.3906 12.2859 34.5217 12.7657C34.566 12.9278 34.5658 13.1767 34.5213 13.3488C34.3804 13.8929 33.8916 14.3454 33.1746 14.5954C32.7829 14.7321 32.366 14.7999 31.844 14.812C30.5886 14.8411 29.127 14.5146 27.8767 13.9258C27.6914 13.8385 27.4202 13.6959 27.3826 13.6658C27.3724 13.6577 27.3604 13.6548 27.3559 13.6594C27.3392 13.6767 26.5495 17.5177 26.5606 17.5282C26.5822 17.5485 26.9126 17.6765 27.1939 17.7734C28.1327 18.097 29.2135 18.3338 30.2297 18.4384C31.1049 18.5284 32.0242 18.5311 32.8329 18.446C35.3222 18.1839 37.3107 17.1151 38.3521 15.4793C38.9436 14.5503 39.2264 13.4882 39.1982 12.3023C39.187 11.8284 39.1336 11.4808 39.0119 11.0896C38.6634 9.9688 37.8865 9.06628 36.5267 8.20238C36.2164 8.00522 35.8473 7.79223 35.2106 7.44286C34.4906 7.04781 34.2195 6.88863 33.9381 6.69571C33.6632 6.50727 33.5146 6.3853 33.3696 6.22915C33.1162 5.95637 33.0064 5.71074 33.0066 5.41733C33.0071 4.76738 33.6264 4.21074 34.5925 3.99169C35.1182 3.87252 35.8325 3.8557 36.5558 3.94548C37.3844 4.04834 38.3369 4.3152 39.058 4.64653C39.1566 4.69182 39.2389 4.7271 39.2411 4.72493C39.2432 4.72277 39.4188 3.8937 39.6313 2.88258C39.8439 1.87145 40.0213 1.03235 40.0257 1.01791C40.0352 0.986141 39.9921 0.965643 39.6898 0.858265C38.8149 0.547584 37.7332 0.321704 36.7521 0.244841C36.6402 0.23608 36.5093 0.225584 36.4613 0.221533C36.3511 0.212233 35.509 0.20247 35.3633 0.20881ZM0.0899446 0.502193C0.0800119 0.53205 -0.00411811 1.0423 0.000157465 1.04669C0.00228071 1.04889 0.101855 1.07153 0.221426 1.09702C1.15296 1.29561 2.11523 1.58222 2.96002 1.9127C3.70263 2.2032 3.97077 2.31929 4.22722 2.46134C4.68821 2.71669 4.99325 3.0187 5.16274 3.3876C5.30166 3.68992 5.29313 3.65835 6.08246 6.79282C6.40654 8.07973 6.69722 9.23357 6.72843 9.35691C6.78467 9.57917 8.06244 14.6486 8.19625 15.1803C8.23453 15.3324 8.42223 16.0775 8.61337 16.8361L8.96089 18.2153L11.3023 18.2153L13.6438 18.2154L17.2431 9.36255C19.2227 4.49351 20.8445 0.503837 20.8472 0.496616C20.85 0.489126 19.8505 0.483504 18.5183 0.483504H16.1845L16.1597 0.547045C16.1461 0.581986 15.1075 3.28494 13.8517 6.5536C12.596 9.82226 11.5628 12.5067 11.5558 12.519C11.5469 12.5348 11.543 12.5357 11.5427 12.5221C11.5418 12.4838 9.65102 2.26614 9.61545 2.10758C9.48087 1.5075 9.11999 1.02184 8.60372 0.746028C8.34883 0.609854 8.08673 0.531541 7.77775 0.499247C7.54216 0.474623 0.0981613 0.477479 0.0899446 0.502193ZM22.7212 0.524619C22.7168 0.547225 21.8974 4.51504 20.9004 9.34196C19.9033 14.1689 19.084 18.1401 19.0796 18.1668L19.0716 18.2154H21.2956H23.5197L25.336 9.39055C26.335 4.53689 27.155 0.547225 27.1584 0.524619L27.1645 0.483504H24.9469H22.7293L22.7212 0.524619ZM47.2738 0.500668C46.5385 0.579145 45.9986 1.01884 45.615 1.85152C45.5677 1.95408 39.1013 17.9045 38.9886 18.1967C38.9828 18.2116 39.454 18.2154 41.3152 18.2154H43.649L43.8263 17.6884C43.9238 17.3985 44.1259 16.7964 44.2753 16.3505L44.5471 15.5396L47.3938 15.5394C48.9595 15.5393 50.2408 15.5408 50.241 15.5429C50.2413 15.5449 50.3641 16.1454 50.5139 16.8773L50.7863 18.2079L52.8485 18.2117C54.8083 18.2153 54.9104 18.2142 54.9032 18.1893C54.8949 18.161 51.3167 0.503329 51.3167 0.490964C51.3167 0.477658 47.4014 0.487062 47.2738 0.500668ZM48.8589 8.59302C49.2349 10.4013 49.5425 11.8932 49.5425 11.9084C49.5425 11.935 49.4804 11.936 47.694 11.936C46.2217 11.936 45.8468 11.9322 45.8517 11.9173C45.9402 11.6477 48.1685 5.28358 48.1712 5.29241C48.1735 5.29944 48.4829 6.78472 48.8589 8.59302Z" fill="#45445B"></path><path fill-rule="evenodd" clip-rule="evenodd" d="M106.375 10.9709C106.315 11.0408 106.263 11.1187 106.217 11.2047C106.106 11.4107 106.05 11.6527 106.05 11.9307C106.05 12.212 106.106 12.4573 106.217 12.6666C106.243 12.7166 106.272 12.7638 106.304 12.8084C105.632 18.375 100.892 22.6888 95.1443 22.6888C88.9361 22.6888 83.9033 17.656 83.9033 11.4478C83.9033 5.23956 88.9361 0.206787 95.1443 0.206787C101.193 0.206787 106.125 4.98384 106.375 10.9709ZM100.102 12.544V10.9594H100.804V10.5914H100.102V9.91439H99.6556V10.5914H99.3073V10.9594H99.6556V12.544C99.6556 12.8056 99.7178 12.9937 99.8421 13.1082C99.9663 13.2226 100.153 13.2799 100.401 13.2799H100.804V12.9021H100.475C100.338 12.9021 100.241 12.8759 100.185 12.8236C100.13 12.768 100.102 12.6748 100.102 12.544ZM92.4168 10.6748C92.2533 10.5865 92.0669 10.5423 91.8576 10.5423C91.645 10.5423 91.452 10.5947 91.2787 10.6993C91.1053 10.804 90.981 10.9512 90.9058 11.1409C90.8208 10.9446 90.6916 10.7958 90.5182 10.6944C90.3449 10.593 90.1454 10.5423 89.9197 10.5423C89.7398 10.5423 89.5747 10.58 89.4242 10.6552C89.277 10.7304 89.1593 10.8383 89.071 10.979V10.5914H88.6245V13.2799H89.071V11.7983C89.071 11.517 89.1397 11.3028 89.277 11.1556C89.4144 11.0051 89.5992 10.9299 89.8314 10.9299C90.0571 10.9299 90.2353 11.0019 90.3661 11.1458C90.5002 11.2864 90.5673 11.4908 90.5673 11.759V13.2799H91.0088V11.7983C91.0088 11.517 91.0775 11.3028 91.2149 11.1556C91.3522 11.0051 91.537 10.9299 91.7692 10.9299C91.9949 10.9299 92.1732 11.0019 92.304 11.1458C92.4381 11.2864 92.5051 11.4908 92.5051 11.759V13.2799H92.9467V11.6952C92.9467 11.4467 92.8993 11.2357 92.8044 11.0624C92.7096 10.889 92.5804 10.7598 92.4168 10.6748ZM93.679 11.2047C93.5678 11.4107 93.5122 11.6511 93.5122 11.9258C93.5122 12.1973 93.5678 12.4393 93.679 12.6519C93.7902 12.8645 93.9423 13.0297 94.1353 13.1474C94.3282 13.2652 94.5441 13.324 94.7828 13.324C95.0151 13.324 95.2178 13.2733 95.3912 13.1719C95.5678 13.0673 95.7003 12.9365 95.7886 12.7795V13.2799H96.2399V10.5914H95.7886V11.082C95.7035 10.9283 95.5743 10.8007 95.401 10.6993C95.2276 10.5979 95.0232 10.5473 94.7877 10.5473C94.549 10.5473 94.3315 10.6045 94.1353 10.719C93.9423 10.8334 93.7902 10.9953 93.679 11.2047ZM95.6659 11.4009C95.7477 11.5513 95.7886 11.728 95.7886 11.9307C95.7886 12.1335 95.7477 12.3118 95.6659 12.4655C95.5841 12.6159 95.4729 12.732 95.3323 12.8138C95.1949 12.8923 95.0429 12.9315 94.8761 12.9315C94.7093 12.9315 94.5572 12.8923 94.4198 12.8138C94.2824 12.732 94.1729 12.6159 94.0911 12.4655C94.0093 12.3118 93.9685 12.1319 93.9685 11.9258C93.9685 11.723 94.0093 11.5464 94.0911 11.396C94.1729 11.2455 94.2824 11.1311 94.4198 11.0526C94.5572 10.9741 94.7093 10.9348 94.8761 10.9348C95.0429 10.9348 95.1949 10.9757 95.3323 11.0575C95.4729 11.136 95.5841 11.2504 95.6659 11.4009ZM97.9461 13.324C97.7401 13.324 97.5553 13.2897 97.3917 13.221C97.2282 13.149 97.099 13.0509 97.0042 12.9266C96.9093 12.7991 96.857 12.6535 96.8472 12.49H97.3083C97.3214 12.6241 97.3836 12.7337 97.4948 12.8187C97.6092 12.9037 97.758 12.9463 97.9412 12.9463C98.1113 12.9463 98.2454 12.9087 98.3435 12.8334C98.4416 12.7582 98.4907 12.6634 98.4907 12.5489C98.4907 12.4311 98.4383 12.3445 98.3337 12.2889C98.229 12.23 98.0671 12.1728 97.848 12.1172C97.6485 12.0648 97.4849 12.0125 97.3574 11.9602C97.2331 11.9046 97.1252 11.8244 97.0336 11.7198C96.9453 11.6118 96.9011 11.4712 96.9011 11.2979C96.9011 11.1605 96.942 11.0346 97.0238 10.9201C97.1056 10.8056 97.2217 10.7157 97.3721 10.6503C97.5226 10.5816 97.6943 10.5473 97.8872 10.5473C98.1849 10.5473 98.4253 10.6225 98.6084 10.7729C98.7916 10.9234 98.8897 11.1294 98.9028 11.3911H98.4563C98.4465 11.2504 98.3893 11.1376 98.2846 11.0526C98.1832 10.9675 98.0459 10.925 97.8725 10.925C97.7123 10.925 97.5847 10.9594 97.4899 11.028C97.395 11.0967 97.3476 11.1867 97.3476 11.2979C97.3476 11.3862 97.3754 11.4598 97.431 11.5186C97.4899 11.5742 97.5618 11.62 97.6468 11.656C97.7352 11.6887 97.8562 11.7263 98.0099 11.7688C98.2029 11.8212 98.3598 11.8735 98.4809 11.9258C98.6019 11.9749 98.7049 12.0501 98.7899 12.1515C98.8782 12.2529 98.924 12.3854 98.9273 12.5489C98.9273 12.6961 98.8864 12.8285 98.8046 12.9463C98.7229 13.064 98.6068 13.1572 98.4563 13.2259C98.3091 13.2913 98.1391 13.324 97.9461 13.324ZM103.798 11.8326C103.798 11.9177 103.793 12.0076 103.783 12.1024H101.634C101.65 12.3674 101.74 12.575 101.904 12.7255C102.071 12.8727 102.272 12.9463 102.507 12.9463C102.7 12.9463 102.86 12.9021 102.988 12.8138C103.119 12.7222 103.21 12.6012 103.263 12.4508H103.744C103.672 12.7091 103.528 12.9201 103.312 13.0836C103.096 13.2439 102.828 13.324 102.507 13.324C102.252 13.324 102.023 13.2668 101.82 13.1523C101.621 13.0378 101.464 12.8759 101.349 12.6666C101.235 12.454 101.178 12.2087 101.178 11.9307C101.178 11.6527 101.233 11.4091 101.345 11.1997C101.456 10.9904 101.611 10.8302 101.811 10.719C102.013 10.6045 102.246 10.5473 102.507 10.5473C102.762 10.5473 102.988 10.6029 103.184 10.7141C103.381 10.8253 103.531 10.979 103.636 11.1752C103.744 11.3682 103.798 11.5873 103.798 11.8326ZM103.336 11.7394C103.336 11.5693 103.299 11.4238 103.224 11.3028C103.148 11.1785 103.045 11.0853 102.914 11.0231C102.787 10.9577 102.645 10.925 102.488 10.925C102.262 10.925 102.069 10.997 101.909 11.1409C101.752 11.2848 101.662 11.4843 101.639 11.7394H103.336ZM105.167 10.6699C105.023 10.7549 104.912 10.8743 104.833 11.028V10.5914H104.387V13.2799H104.833V11.8179C104.833 11.275 105.083 11.0035 105.584 11.0035H105.702V10.5423C105.492 10.5423 105.314 10.5849 105.167 10.6699Z" fill="#45445B" fill-opacity="0.7"></path><path fill-rule="evenodd" clip-rule="evenodd" d="M99.4269 10.9598C99.42 11.1219 99.4165 11.2848 99.4165 11.4485C99.4165 17.6568 104.449 22.6895 110.658 22.6895C116.866 22.6895 121.899 17.6568 121.899 11.4485C121.899 5.24029 116.866 0.20752 110.658 0.20752C104.737 0.20752 99.8863 4.78386 99.4487 10.5919H99.6555V9.91487H100.102V10.5919H100.803V10.9598H100.102V12.5445C100.102 12.6753 100.13 12.7685 100.185 12.8241C100.241 12.8764 100.337 12.9026 100.475 12.9026H100.803V13.2804H100.401C100.153 13.2804 99.9662 13.2231 99.8419 13.1086C99.7176 12.9942 99.6555 12.8061 99.6555 12.5445V10.9598H99.4269ZM114.342 11.2051C114.231 11.4112 114.175 11.6516 114.175 11.9263C114.175 12.1978 114.231 12.4398 114.342 12.6524C114.453 12.865 114.606 13.0302 114.799 13.1479C114.995 13.2656 115.212 13.3245 115.451 13.3245C115.683 13.3245 115.886 13.2738 116.059 13.1724C116.233 13.0678 116.364 12.9353 116.452 12.775V13.2804H116.903V9.64995H116.452V11.0727C116.357 10.9157 116.22 10.7898 116.04 10.6949C115.86 10.5968 115.665 10.5477 115.456 10.5477C115.214 10.5477 114.995 10.605 114.799 10.7194C114.606 10.8339 114.453 10.9958 114.342 11.2051ZM116.329 11.4014C116.411 11.5518 116.452 11.7284 116.452 11.9312C116.452 12.134 116.411 12.3122 116.329 12.466C116.247 12.6164 116.136 12.7325 115.996 12.8143C115.858 12.8928 115.706 12.932 115.539 12.932C115.373 12.932 115.22 12.8928 115.083 12.8143C114.946 12.7325 114.836 12.6164 114.754 12.466C114.673 12.3122 114.632 12.1324 114.632 11.9263C114.632 11.7235 114.673 11.5469 114.754 11.3965C114.836 11.246 114.946 11.1315 115.083 11.0531C115.22 10.9746 115.373 10.9353 115.539 10.9353C115.706 10.9353 115.858 10.9762 115.996 11.058C116.136 11.1365 116.247 11.2509 116.329 11.4014ZM103.797 11.8331C103.797 11.9181 103.792 12.0081 103.783 12.1029H101.634C101.65 12.3678 101.74 12.5755 101.904 12.726C102.07 12.8732 102.272 12.9468 102.507 12.9468C102.7 12.9468 102.86 12.9026 102.988 12.8143C103.119 12.7227 103.21 12.6017 103.263 12.4512H103.743C103.671 12.7096 103.528 12.9206 103.312 13.0841C103.096 13.2444 102.828 13.3245 102.507 13.3245C102.252 13.3245 102.023 13.2673 101.82 13.1528C101.621 13.0383 101.464 12.8764 101.349 12.6671C101.235 12.4545 101.178 12.2092 101.178 11.9312C101.178 11.6532 101.233 11.4096 101.344 11.2002C101.456 10.9909 101.611 10.8307 101.81 10.7194C102.013 10.605 102.245 10.5477 102.507 10.5477C102.762 10.5477 102.988 10.6033 103.184 10.7145C103.38 10.8257 103.531 10.9795 103.635 11.1757C103.743 11.3687 103.797 11.5878 103.797 11.8331ZM103.336 11.7399C103.336 11.5698 103.299 11.4243 103.223 11.3033C103.148 11.179 103.045 11.0858 102.914 11.0236C102.787 10.9582 102.644 10.9255 102.487 10.9255C102.262 10.9255 102.069 10.9975 101.909 11.1414C101.752 11.2853 101.662 11.4848 101.639 11.7399H103.336ZM105.167 10.6704C105.023 10.7554 104.912 10.8748 104.833 11.0285V10.5919H104.387V13.2804H104.833V11.8184C104.833 11.2755 105.083 11.004 105.584 11.004H105.701V10.5428C105.492 10.5428 105.314 10.5854 105.167 10.6704ZM106.05 11.9312C106.05 11.6532 106.106 11.4112 106.217 11.2051C106.328 10.9958 106.482 10.8339 106.678 10.7194C106.877 10.605 107.105 10.5477 107.36 10.5477C107.69 10.5477 107.962 10.6279 108.174 10.7881C108.39 10.9484 108.532 11.1708 108.601 11.4553H108.12C108.075 11.2918 107.985 11.1626 107.85 11.0678C107.72 10.9729 107.556 10.9255 107.36 10.9255C107.105 10.9255 106.899 11.0138 106.742 11.1904C106.585 11.3638 106.506 11.6107 106.506 11.9312C106.506 12.255 106.585 12.5052 106.742 12.6818C106.899 12.8584 107.105 12.9468 107.36 12.9468C107.556 12.9468 107.72 12.901 107.85 12.8094C107.981 12.7178 108.071 12.587 108.12 12.4169H108.601C108.529 12.6916 108.385 12.9124 108.169 13.0792C107.954 13.2427 107.684 13.3245 107.36 13.3245C107.105 13.3245 106.877 13.2673 106.678 13.1528C106.482 13.0383 106.328 12.8764 106.217 12.6671C106.106 12.4578 106.05 12.2125 106.05 11.9312ZM109.197 11.2051C109.086 11.4112 109.03 11.6516 109.03 11.9263C109.03 12.1978 109.086 12.4398 109.197 12.6524C109.308 12.865 109.46 13.0302 109.653 13.1479C109.846 13.2656 110.062 13.3245 110.301 13.3245C110.533 13.3245 110.736 13.2738 110.909 13.1724C111.086 13.0678 111.218 12.9369 111.306 12.7799V13.2804H111.758V10.5919H111.306V11.0825C111.221 10.9288 111.092 10.8012 110.919 10.6998C110.745 10.5984 110.541 10.5477 110.306 10.5477C110.067 10.5477 109.849 10.605 109.653 10.7194C109.46 10.8339 109.308 10.9958 109.197 11.2051ZM111.184 11.4014C111.265 11.5518 111.306 11.7284 111.306 11.9312C111.306 12.134 111.265 12.3122 111.184 12.466C111.102 12.6164 110.991 12.7325 110.85 12.8143C110.713 12.8928 110.561 12.932 110.394 12.932C110.227 12.932 110.075 12.8928 109.938 12.8143C109.8 12.7325 109.691 12.6164 109.609 12.466C109.527 12.3122 109.486 12.1324 109.486 11.9263C109.486 11.7235 109.527 11.5469 109.609 11.3965C109.691 11.246 109.8 11.1315 109.938 11.0531C110.075 10.9746 110.227 10.9353 110.394 10.9353C110.561 10.9353 110.713 10.9762 110.85 11.058C110.991 11.1365 111.102 11.2509 111.184 11.4014ZM112.959 11.0285C113.037 10.8748 113.148 10.7554 113.292 10.6704C113.439 10.5854 113.618 10.5428 113.827 10.5428V11.004H113.709C113.209 11.004 112.959 11.2755 112.959 11.8184V13.2804H112.512V10.5919H112.959V11.0285Z" fill="#45445B" fill-opacity="0.5"></path><path fill-rule="evenodd" clip-rule="evenodd" d="M160.427 0.22645L158.138 0.239161L157.805 0.303368C156.854 0.486458 156.267 0.713288 155.698 1.11709C155.471 1.27824 155.105 1.63883 154.929 1.87353C154.731 2.13873 154.514 2.5997 154.417 2.96329C154.322 3.31659 154.067 4.54624 153.293 8.38075C153.168 9.00401 152.982 9.92402 152.88 10.4252C152.779 10.9264 152.554 12.0409 152.38 12.9019C152.207 13.7629 152.019 14.6934 151.963 14.9697C151.218 18.6265 150.888 20.2861 150.899 20.315C150.909 20.3404 154.256 20.3432 170.029 20.3313C188.802 20.3171 189.154 20.316 189.503 20.2713C190.449 20.1496 191.264 19.8689 191.825 19.4706C192.075 19.2937 192.486 18.8804 192.636 18.6567C192.893 18.2722 193.07 17.8471 193.17 17.3764C193.236 17.0649 194.551 10.6041 194.779 9.46723C194.854 9.09456 195.025 8.24815 195.16 7.58633C195.295 6.92451 195.571 5.56816 195.773 4.57222C195.975 3.57627 196.255 2.19964 196.396 1.51303C196.537 0.826445 196.652 0.250773 196.652 0.233787C196.652 0.208225 193.735 0.203856 179.684 0.208319C170.352 0.211286 161.686 0.21944 160.427 0.22645ZM192.698 6.2254C192.698 6.23507 192.65 6.47954 192.593 6.76864C192.369 7.89071 191.868 10.7 191.774 11.3598C191.691 11.9395 191.588 12.851 191.588 13.0012L191.588 13.1473H191.145H190.702L190.718 12.9895C190.726 12.9028 190.747 12.7346 190.764 12.6157C190.78 12.4968 190.788 12.4001 190.78 12.4007C190.773 12.4014 190.709 12.4856 190.639 12.5878C190.477 12.8249 190.318 12.9638 190.077 13.0779C189.565 13.3201 188.731 13.3221 188.224 13.0824C187.892 12.9254 187.714 12.7249 187.59 12.3685C187.431 11.914 187.444 11.1344 187.622 10.4839C187.843 9.67366 188.216 9.04624 188.686 8.69473C189.048 8.42446 189.487 8.26114 189.983 8.21203C190.352 8.17548 190.845 8.21436 191.161 8.30497L191.394 8.37159L191.457 7.9848C191.554 7.392 191.672 6.6395 191.703 6.41223L191.731 6.20778H192.214C192.48 6.20778 192.698 6.2157 192.698 6.2254ZM163.178 6.30708C163.222 6.33601 163.281 6.4005 163.308 6.45043C163.354 6.53169 163.357 6.56282 163.345 6.74686C163.313 7.20031 163.084 7.44614 162.694 7.44614C162.498 7.44614 162.358 7.3828 162.305 7.27116C162.241 7.1348 162.251 6.82633 162.326 6.64518C162.437 6.3744 162.612 6.25979 162.919 6.25645C163.069 6.25484 163.112 6.26339 163.178 6.30708ZM157.216 6.38886C157.196 6.46062 157.043 7.28555 157.005 7.52792C156.985 7.65643 156.923 8.0034 156.867 8.29897C156.811 8.59454 156.755 8.89072 156.744 8.95714L156.723 9.07794L156.864 9.09561C157.033 9.1168 159.665 9.11619 159.761 9.09493L159.828 9.08002L159.893 8.65445C159.928 8.42037 160.024 7.83984 160.106 7.36436C160.187 6.88888 160.26 6.46569 160.267 6.42391L160.279 6.34797H160.842H161.404L161.362 6.52905C161.34 6.62864 161.262 7.03608 161.191 7.43446C161.119 7.83283 160.994 8.52152 160.913 8.96488C160.763 9.78 160.421 11.7919 160.298 12.5865C160.261 12.8242 160.225 13.0476 160.217 13.083L160.204 13.1473H159.651C159.158 13.1473 159.098 13.1431 159.098 13.1097C159.098 13.0645 159.187 12.5677 159.478 10.9874C159.64 10.1091 159.691 9.7892 159.672 9.76659C159.636 9.72261 156.664 9.72121 156.629 9.76514C156.617 9.78121 156.579 9.94154 156.546 10.1215C156.485 10.4512 156.045 13.0909 156.045 13.1275C156.045 13.1384 155.795 13.1473 155.49 13.1473C154.991 13.1473 154.935 13.1434 154.935 13.1089C154.935 13.0878 155.034 12.5594 155.154 11.9348C155.477 10.2622 155.563 9.77824 155.792 8.32757C156.056 6.65516 156.091 6.43879 156.106 6.38886C156.117 6.35139 156.164 6.34797 156.673 6.34797C157.19 6.34797 157.227 6.35073 157.216 6.38886ZM166.844 8.26004C167.401 8.40229 167.749 8.76272 167.889 9.34089C167.966 9.66434 167.963 10.16 167.879 10.6246C167.779 11.1769 167.546 11.8087 167.301 12.1927C167.045 12.5935 166.686 12.9093 166.285 13.0857C166.09 13.1715 165.698 13.2594 165.434 13.2765C164.822 13.316 164.429 13.1491 164.204 12.7545C164.166 12.6863 164.128 12.6363 164.121 12.6435C164.106 12.6582 163.873 14.1386 163.778 14.8179C163.744 15.062 163.713 15.275 163.708 15.291C163.703 15.3132 163.584 15.3202 163.214 15.3202C162.947 15.3202 162.728 15.3158 162.728 15.3105C162.728 15.3051 162.78 15.0344 162.843 14.7088C163.158 13.0905 163.518 11.0207 163.944 8.38659L163.956 8.31065H164.371C164.627 8.31065 164.786 8.31944 164.786 8.33355C164.786 8.34614 164.769 8.44119 164.749 8.54482C164.728 8.64842 164.717 8.73896 164.724 8.74602C164.731 8.75307 164.806 8.70578 164.891 8.64094C165.181 8.41911 165.597 8.25502 165.989 8.20794C166.171 8.18605 166.675 8.21672 166.844 8.26004ZM171.712 8.26423C172.219 8.37556 172.566 8.6719 172.661 9.07388C172.723 9.33762 172.689 9.94063 172.584 10.4135L172.566 10.4953L170.943 10.507C169.906 10.5145 169.313 10.5271 169.3 10.542C169.263 10.5841 169.202 11.0968 169.203 11.369C169.203 11.952 169.414 12.3174 169.852 12.4953L170.047 12.5748L170.493 12.582C170.873 12.5882 170.975 12.582 171.186 12.5398C171.448 12.4876 171.792 12.3824 171.995 12.2923C172.076 12.2565 172.117 12.248 172.117 12.2668C172.117 12.2823 172.092 12.421 172.061 12.5751C172.03 12.7291 171.999 12.8933 171.991 12.9399L171.977 13.0245L171.74 13.0746C170.819 13.2696 170.068 13.3101 169.508 13.1949C169.213 13.1342 169.061 13.0773 168.887 12.9631C168.582 12.7622 168.403 12.5034 168.288 12.0991C168.229 11.8917 168.227 11.8676 168.237 11.4233C168.246 11.0382 168.258 10.9127 168.311 10.6589C168.471 9.89171 168.734 9.30653 169.085 8.93509C169.47 8.52701 169.919 8.31673 170.618 8.21729C170.867 8.18179 171.451 8.20684 171.712 8.26423ZM176.047 8.24163C176.143 8.26794 176.235 8.2978 176.252 8.30801C176.275 8.3228 176.269 8.39495 176.219 8.66326C176.184 8.84843 176.154 9.00252 176.152 9.0057C176.15 9.00885 176.097 8.9968 176.034 8.9789C175.972 8.961 175.799 8.94042 175.65 8.93317L175.379 8.91997L175.197 9.00668C174.883 9.15619 174.617 9.45104 174.428 9.8596C174.302 10.1312 174.145 10.8714 173.957 12.0725C173.912 12.3616 173.863 12.7217 173.847 12.8727L173.819 13.1473H173.338C172.998 13.1473 172.857 13.1396 172.857 13.1211C172.857 13.1067 172.935 12.694 173.031 12.204C173.126 11.714 173.246 11.0765 173.297 10.7874C173.393 10.2359 173.689 8.39119 173.689 8.34026C173.689 8.31743 173.787 8.31065 174.119 8.31065C174.516 8.31065 174.547 8.31364 174.536 8.35154C174.511 8.44017 174.402 9.08558 174.411 9.09451C174.416 9.09972 174.48 9.02275 174.552 8.92345C174.777 8.61403 174.945 8.45869 175.187 8.33603C175.473 8.19128 175.75 8.16083 176.047 8.24163ZM179.343 8.22904C179.585 8.24785 179.793 8.26355 179.806 8.26395C179.888 8.26642 179.89 8.29806 179.828 8.67496C179.794 8.87941 179.764 9.04967 179.76 9.05336C179.757 9.05703 179.703 9.03979 179.641 9.015C179.579 8.99023 179.387 8.94072 179.216 8.90497C178.96 8.8517 178.841 8.83964 178.557 8.83817C178.247 8.83656 178.186 8.84315 177.987 8.89948C177.579 9.01483 177.347 9.22222 177.129 9.66796C176.729 10.4852 176.624 11.6298 176.902 12.1253C177.076 12.4344 177.326 12.5691 177.782 12.5981C178.164 12.6223 178.661 12.5142 179.174 12.2954C179.209 12.2808 179.212 12.2902 179.2 12.3683C179.168 12.5843 179.081 12.9894 179.062 13.0079C179.027 13.044 178.612 13.1456 178.279 13.1996C177.821 13.274 177.219 13.2725 176.903 13.1962C176.393 13.0723 176.075 12.7982 175.886 12.3187C175.797 12.0902 175.771 11.909 175.771 11.4883C175.771 10.9256 175.83 10.5721 176.017 10.0163C176.225 9.39814 176.572 8.89167 176.982 8.60896C177.508 8.24553 178.176 8.13812 179.343 8.22904ZM183.401 8.2721C183.819 8.3654 184.058 8.52101 184.191 8.78639L184.26 8.92334L184.237 9.30043C184.22 9.58324 184.18 9.87028 184.075 10.4486C183.861 11.6361 183.771 12.2509 183.743 12.7208L183.717 13.1473H183.305H182.893V12.9991C182.893 12.9176 182.904 12.7659 182.918 12.6621C182.956 12.3745 182.948 12.3696 182.775 12.578C182.52 12.8864 182.222 13.0823 181.855 13.1841C181.675 13.2339 181.589 13.2428 181.246 13.2472C180.873 13.252 180.831 13.2482 180.621 13.1887C180.273 13.0905 180.084 12.9498 179.92 12.6675C179.799 12.4606 179.758 11.9437 179.828 11.5351C179.882 11.2281 180.044 10.9109 180.269 10.6724C180.548 10.3775 180.803 10.2374 181.338 10.0856L181.583 10.0163H182.41C183.177 10.0163 183.237 10.0134 183.249 9.97542C183.291 9.8375 183.332 9.56957 183.332 9.43029C183.332 9.2837 183.324 9.25592 183.251 9.14458C183.15 8.99135 183.004 8.91324 182.715 8.85784C182.336 8.78527 181.587 8.85906 180.928 9.03383C180.833 9.05899 180.753 9.07743 180.751 9.07481C180.747 9.07077 180.893 8.42823 180.917 8.33986C180.923 8.3203 180.976 8.31065 181.078 8.31065C181.161 8.31065 181.362 8.29453 181.524 8.27483C182.309 8.17915 182.981 8.17817 183.401 8.2721ZM187.825 8.25446C187.967 8.30231 188.003 8.3232 187.994 8.35376C187.969 8.43668 187.888 8.90025 187.888 8.95439C187.888 9.02145 187.879 9.02287 187.749 8.97656C187.68 8.9521 187.557 8.94151 187.341 8.94151C187.058 8.94151 187.021 8.94656 186.921 8.99799C186.395 9.27045 186.128 9.6945 185.935 10.5651C185.82 11.0847 185.552 12.7906 185.552 13.006V13.1473H185.057C184.598 13.1473 184.563 13.1443 184.571 13.1064C184.599 12.9811 184.913 11.3475 184.972 11.021C185.063 10.5181 185.256 9.3429 185.332 8.82469C185.365 8.5998 185.397 8.39215 185.403 8.36322C185.414 8.31107 185.417 8.31065 185.83 8.31065C186.219 8.31065 186.246 8.31346 186.246 8.35376C186.246 8.37748 186.219 8.54092 186.186 8.71693C186.154 8.89296 186.131 9.04811 186.135 9.06173C186.14 9.07533 186.189 9.01967 186.245 8.93806C186.672 8.31761 187.258 8.06387 187.825 8.25446ZM163.003 8.50342C162.815 9.38099 162.317 12.2277 162.236 12.8902L162.206 13.1356L161.715 13.1419C161.446 13.1453 161.225 13.1448 161.225 13.1405C161.225 13.1364 161.277 12.8707 161.341 12.5501C161.6 11.2515 161.935 9.31377 162.038 8.52678L162.066 8.31065H162.555H163.044L163.003 8.50342ZM170.537 8.82775C170.272 8.86207 170.051 8.97044 169.854 9.16173C169.673 9.3372 169.583 9.48754 169.473 9.79811L169.414 9.9654L169.626 9.98047C169.743 9.98877 170.271 9.99234 170.799 9.98842L171.758 9.98127L171.783 9.74761C171.831 9.29127 171.727 9.04458 171.425 8.90523C171.216 8.80835 170.899 8.78071 170.537 8.82775ZM165.619 8.84153C165.508 8.85431 165.271 8.92913 165.16 8.98623C165.11 9.01217 164.987 9.09591 164.886 9.17234L164.704 9.31129L164.511 10.3823C164.288 11.6188 164.274 11.7797 164.369 12.0725C164.441 12.2944 164.574 12.4483 164.775 12.5394C164.954 12.6209 165.052 12.6386 165.307 12.6351C165.476 12.6328 165.554 12.6185 165.723 12.5586C165.837 12.5181 165.98 12.4496 166.039 12.4064C166.403 12.1425 166.671 11.6397 166.852 10.8808C166.899 10.6843 166.914 10.5467 166.927 10.1885C166.942 9.76684 166.94 9.73166 166.891 9.56957C166.822 9.33737 166.765 9.22888 166.651 9.10998C166.447 8.89633 166.046 8.79212 165.619 8.84153ZM190.015 8.84808C189.829 8.86791 189.598 8.94925 189.46 9.04301C189.33 9.13203 189.118 9.34755 189.02 9.49169C188.8 9.81446 188.589 10.3971 188.524 10.8605C188.48 11.1688 188.48 11.7578 188.522 11.9385C188.626 12.3766 188.961 12.617 189.46 12.612C189.981 12.6067 190.431 12.3252 190.664 11.8585C190.737 11.7132 190.84 11.3714 190.915 11.0293C190.989 10.6913 191.287 9.02703 191.275 9.01532C191.269 9.00953 191.132 8.96425 190.969 8.91474C190.697 8.83181 190.654 8.82499 190.42 8.82838C190.28 8.83039 190.098 8.83927 190.015 8.84808ZM181.713 10.6102C181.388 10.6966 181.251 10.7715 181.072 10.9593C180.937 11.0999 180.898 11.161 180.821 11.3481C180.733 11.5639 180.731 11.5776 180.732 11.8388C180.734 12.0653 180.742 12.1226 180.783 12.2037C180.892 12.4156 181.034 12.5227 181.299 12.5926C181.546 12.6579 181.984 12.5801 182.257 12.4223C182.401 12.3388 182.657 12.075 182.743 11.9196C182.846 11.7352 183.015 11.2188 183.082 10.8848C183.135 10.6234 183.135 10.6197 183.091 10.5869C183.055 10.5602 182.934 10.5541 182.478 10.5558C181.968 10.5577 181.89 10.5633 181.713 10.6102Z" fill="#45445B"></path><path fill-rule="evenodd" clip-rule="evenodd" d="M234.966 0.211386C234.918 0.216916 234.756 0.233405 234.606 0.248018C234.199 0.287628 233.636 0.388516 233.202 0.499338C232.86 0.58679 232.51 0.690381 232.485 0.711474C232.48 0.715628 232.769 1.60438 233.128 2.68648C233.681 4.36045 233.785 4.65153 233.819 4.63777C233.938 4.5909 234.543 4.44888 234.792 4.40959C235.188 4.34696 236.076 4.34669 236.492 4.40909C238.164 4.65956 239.624 5.59866 240.562 7.02769C240.899 7.54226 241.235 8.32478 241.363 8.89808C241.385 8.99787 241.416 9.07971 241.432 9.07996C241.486 9.08086 245.411 8.27168 245.429 8.25614C245.472 8.21828 245.224 7.30346 245.022 6.75565C244.145 4.38114 242.368 2.38825 240.116 1.2515C239.332 0.855851 238.398 0.537597 237.537 0.372402C236.915 0.253097 236.547 0.218917 235.785 0.20996C235.382 0.20523 235.014 0.205856 234.966 0.211386ZM228.718 3.00459C226.964 4.69182 225.881 6.99358 225.676 9.46733C225.644 9.85302 225.644 10.683 225.676 11.0687C225.858 13.2732 226.701 15.2677 228.16 16.9456C228.408 17.2311 228.991 17.8139 229.026 17.8106C229.04 17.8092 231.671 14.8204 231.723 14.7462C231.741 14.7207 231.681 14.6438 231.486 14.4418C230.707 13.633 230.224 12.7784 229.96 11.7443C229.819 11.1888 229.788 10.9164 229.788 10.2555C229.789 9.75936 229.798 9.61498 229.846 9.33123C230.057 8.08717 230.585 7.03577 231.456 6.12552C231.712 5.85831 231.739 5.82191 231.708 5.78362C231.634 5.69039 229.026 2.72391 229.018 2.72391C229.014 2.72391 228.879 2.85023 228.718 3.00459ZM261.229 9.01068C261.236 14.8322 261.238 15.1569 261.281 15.335C261.439 15.9959 261.807 16.5172 262.34 16.8371C262.486 16.9249 264.597 17.827 264.611 17.8078C264.625 17.7887 265.616 15.4443 265.623 15.4127C265.629 15.388 265.369 15.2702 264.737 15.0112L263.843 14.6446L263.837 8.75933L263.83 2.87405H262.526H261.222L261.229 9.01068ZM253.621 5.49334C251.487 5.65113 249.708 6.83787 248.745 8.7461C248.393 9.44271 248.205 10.041 248.078 10.8686C248.031 11.1718 248.038 12.0591 248.089 12.4089C248.144 12.7793 248.25 13.2157 248.379 13.596C248.485 13.9078 248.91 14.8047 248.961 14.8247C248.988 14.8352 259.923 10.0484 259.959 10.0099C259.983 9.98548 259.783 9.47816 259.594 9.08242C259.041 7.9235 258.307 7.05939 257.388 6.48521C256.234 5.76356 254.86 5.40176 253.621 5.49334ZM271.146 5.52898C270.763 5.57549 269.977 5.75723 269.923 5.81197C269.913 5.82161 270.102 6.42281 270.342 7.14797C270.721 8.29302 270.785 8.46588 270.826 8.46215C270.852 8.45979 271.013 8.42774 271.183 8.39091C271.472 8.32873 271.525 8.32483 271.929 8.33629C272.287 8.34647 272.408 8.36011 272.619 8.4137C273.578 8.65749 274.35 9.28117 274.791 10.1683C274.903 10.3922 275.059 10.8367 275.059 10.9314C275.059 10.9622 275.075 10.9811 275.102 10.981C275.168 10.9807 277.791 10.4395 277.807 10.4226C277.829 10.4006 277.722 9.9817 277.612 9.6589C277.087 8.11374 275.977 6.84453 274.524 6.12722C273.953 5.84515 273.38 5.66152 272.761 5.56198C272.463 5.51414 271.441 5.49324 271.146 5.52898ZM267.468 7.35825C265.732 9.15703 265.25 11.7755 266.229 14.0869C266.521 14.7766 266.984 15.4582 267.532 16.0058C267.737 16.2103 267.795 16.2561 267.818 16.2304C267.835 16.2127 268.231 15.7647 268.7 15.2349C269.168 14.705 269.573 14.2467 269.601 14.2164L269.65 14.1612L269.445 13.9411C268.991 13.4521 268.714 12.9059 268.584 12.2416C268.52 11.9132 268.526 11.3244 268.597 10.9878C268.731 10.3466 269.049 9.7493 269.496 9.29836L269.663 9.12938L268.744 8.0973C268.239 7.52965 267.812 7.06197 267.795 7.05799C267.778 7.05401 267.631 7.18913 267.468 7.35825ZM254.726 8.16446C255.035 8.24458 255.411 8.42767 255.684 8.63117C255.898 8.78983 256.304 9.17785 256.304 9.22306C256.304 9.23675 255.91 9.41864 255.428 9.62724C254.947 9.83585 253.714 10.3704 252.69 10.8151L250.826 11.6237L250.805 11.5464C250.771 11.4262 250.805 10.8713 250.862 10.5875C250.988 9.96887 251.227 9.51404 251.658 9.07694C251.908 8.82286 252.148 8.64663 252.453 8.4918C252.826 8.30276 253.276 8.157 253.651 8.10363C253.934 8.0635 254.449 8.09265 254.726 8.16446ZM241.349 11.688C241.157 12.4764 240.744 13.3227 240.241 13.9588C239.444 14.9642 238.305 15.7022 237.077 16.0079C236.087 16.2544 235.062 16.2423 234.084 15.9724C233.92 15.9272 233.783 15.8924 233.781 15.8952C233.768 15.9071 232.482 19.7749 232.482 19.8004C232.482 19.8565 233.312 20.0879 233.873 20.188C234.853 20.3629 236.068 20.3868 237.027 20.2498C240.119 19.8085 242.801 17.9691 244.358 15.2224C244.681 14.6527 245.004 13.8982 245.2 13.2582C245.31 12.8983 245.457 12.3076 245.441 12.2914C245.432 12.2821 241.457 11.4566 241.422 11.4566C241.412 11.4566 241.38 11.5607 241.349 11.688ZM275.035 12.4762C274.905 13.0694 274.484 13.752 273.991 14.1678C273.424 14.6465 272.848 14.8893 272.107 14.9624C271.771 14.9956 271.371 14.9619 271.011 14.87C270.882 14.837 270.775 14.8128 270.772 14.8161C270.77 14.8193 270.575 15.4075 270.339 16.1232C270.102 16.8388 269.904 17.4372 269.899 17.453C269.887 17.4863 270.023 17.5347 270.376 17.622C271.464 17.8914 272.667 17.8485 273.717 17.5027C274.894 17.1152 275.978 16.3352 276.707 15.351C277.183 14.7076 277.492 14.0875 277.699 13.3575C277.824 12.9181 277.828 12.8901 277.774 12.8733C277.689 12.8471 275.154 12.3323 275.11 12.3323C275.077 12.3323 275.059 12.3671 275.035 12.4762ZM256.764 13.7372C256.314 14.3499 255.606 14.7978 254.726 15.0255C254.473 15.0912 254.419 15.0962 253.969 15.0966C253.537 15.0969 253.461 15.0905 253.273 15.0384C253.01 14.9654 252.563 14.7484 252.367 14.598C252.285 14.5354 252.212 14.4842 252.204 14.4842C252.196 14.4842 251.858 14.9845 251.453 15.5959L250.717 16.7076L250.921 16.8398C251.565 17.2579 252.37 17.5723 253.161 17.7157C253.444 17.7669 253.562 17.7741 254.105 17.7737C254.642 17.7733 254.77 17.7654 255.045 17.716C256.54 17.4471 257.933 16.6517 258.793 15.576C259.048 15.2562 259.175 15.0634 259.146 15.0376C259.116 15.0111 257.113 13.661 256.999 13.5903L256.911 13.5363L256.764 13.7372Z" fill="#45445B"></path><path fill-rule="evenodd" clip-rule="evenodd" d="M310.19 0.308104C310.068 0.359717 309.886 0.498075 309.785 0.615605C309.487 0.964762 306.81 7.59452 306.81 7.98568C306.81 8.22783 306.914 8.45053 307.134 8.67735C307.45 9.00419 307.484 9.01186 308.602 9.01015C309.284 9.00912 309.859 8.95132 310.024 8.8671C310.185 8.78516 310.415 8.47331 310.571 8.12495L310.842 7.52414H311.692H312.543L312.733 8.03786C313.072 8.95521 313.221 9.01186 315.296 9.01186C316.289 9.01186 317.23 8.96162 317.386 8.90028C317.542 8.83894 317.765 8.62769 317.881 8.43096C318.078 8.09737 318.097 8.08924 318.165 8.31069C318.328 8.84089 318.734 9.01186 319.831 9.01186C320.929 9.01186 321.335 8.84089 321.498 8.31069C321.567 8.08821 321.584 8.09508 321.776 8.42078C321.889 8.61201 322.074 8.81995 322.188 8.88312C322.319 8.95521 324.443 8.99847 327.915 8.99973L333.434 9.00179L333.753 8.67232C334.048 8.36722 334.072 8.27853 334.072 7.47573V6.60862H334.515H334.958V7.47573C334.958 8.27853 334.982 8.36722 335.278 8.67232L335.597 9.00191H338.013H340.429L340.769 8.62586L341.109 8.2498L341.829 8.60056C342.516 8.93473 342.629 8.95327 344.218 8.99332C345.869 9.03487 345.889 9.03246 346.22 8.74476C346.404 8.58489 346.621 8.24488 346.703 7.98911L346.852 7.52414H347.717H348.583L348.824 8.10195C349.18 8.95567 349.346 9.01186 351.515 9.01186C353.286 9.01186 353.352 9.00339 353.653 8.73606C353.916 8.50237 353.972 8.34971 354.019 7.73482L354.075 7.00939L354.597 7.8757C354.895 8.37054 355.242 8.79992 355.406 8.87694C355.786 9.05615 358.129 9.05478 358.511 8.87511C359.09 8.60251 359.117 8.40979 359.117 4.55613V1.0047L358.794 0.63094L358.471 0.257177H357.245C356.073 0.257177 356.007 0.270223 355.732 0.554379C355.549 0.742977 355.421 1.02931 355.381 1.33727L355.318 1.82272L355.003 1.25945C354.458 0.28613 354.408 0.262213 352.817 0.220213C352.014 0.199156 351.285 0.234518 351.111 0.303297C350.721 0.456418 350.365 1.05849 350.359 1.57324C350.354 1.97344 350.353 1.97321 350.1 1.36725C349.646 0.280637 349.593 0.254889 347.839 0.272055C347.002 0.28018 346.218 0.291852 346.096 0.297803C345.974 0.303754 345.387 0.279265 344.791 0.243216C343.463 0.162879 342.412 0.335683 341.654 0.758769L341.09 1.07337L340.91 0.750073C340.656 0.29254 340.258 0.176268 339.095 0.219412C338.221 0.251913 338.042 0.293341 337.812 0.516729L337.544 0.776165L336.999 0.516729C336.455 0.257521 336.446 0.257178 330.803 0.260497C327.694 0.262442 325.051 0.271712 324.929 0.281211C324.807 0.290709 323.984 0.274457 323.101 0.245046C321.039 0.176497 320.999 0.197553 320.397 1.69867C320.159 2.29055 319.93 2.81606 319.887 2.8663C319.844 2.91666 319.594 2.46645 319.33 1.86598C318.625 0.261068 318.631 0.265187 316.803 0.21861C314.754 0.16654 314.352 0.39359 314.342 1.60723L314.338 2.08822L313.973 1.28588C313.718 0.725009 313.518 0.440968 313.307 0.341749C312.967 0.181875 310.551 0.155784 310.19 0.308104ZM314.111 4.49147L315.399 7.58136L315.428 4.45908L315.458 1.33692L316.68 1.36919L317.902 1.40158L318.855 3.54734C319.38 4.72756 319.843 5.69309 319.885 5.69309C319.928 5.69309 320.357 4.72756 320.84 3.54734L321.718 1.40158L322.964 1.36919L324.209 1.33681V4.60213V7.86746H323.489H322.768V5.34977C322.768 3.96504 322.731 2.83311 322.685 2.83426C322.639 2.83552 322.126 3.95555 321.545 5.32334L320.488 7.81024L319.822 7.84377L319.155 7.87719L318.124 5.44052C317.556 4.10031 317.047 2.95477 316.993 2.89503C316.936 2.83151 316.895 3.84191 316.895 5.32688V7.86746L315.371 7.8662L313.847 7.86494L313.569 7.15095L313.291 6.43696L311.707 6.40514L310.124 6.37333L309.796 7.12039L309.468 7.86746H308.696H307.924L308.038 7.55618C308.101 7.38486 308.705 5.91545 309.379 4.29074L310.606 1.33669L311.715 1.36908L312.824 1.40158L314.111 4.49147ZM330.415 2.031V2.71764H328.642H326.869V3.28985V3.86205H328.586H330.304V4.54869V5.23533H328.586H326.869V5.92197V6.60862H328.642H330.415V7.23804V7.86746H327.921H325.428V4.60591V1.34436H327.921H330.415V2.031ZM336.72 1.63046C337.333 2.00308 337.557 2.40534 337.547 3.11418C337.537 3.80941 337.284 4.32668 336.788 4.6621L336.481 4.87061L336.837 5.06058C337.323 5.32048 337.507 5.83843 337.507 6.94828V7.86746H336.801H336.095L336.043 6.94507C335.969 5.6107 335.875 5.53494 334.236 5.48126L332.964 5.43949V6.65348V7.86746H332.243H331.523V4.59469V1.32193L333.933 1.36175C336.103 1.39757 336.381 1.42447 336.72 1.63046ZM340.056 4.60591V7.86746H339.281H338.505V4.60591V1.34436H339.281H340.056V4.60591ZM345.376 2.031V2.71764H344.43C342.766 2.71764 342.341 3.11292 342.336 4.66313C342.333 6.05438 342.713 6.49589 343.912 6.49234L344.544 6.49051L345.597 3.91927L346.65 1.34802L347.768 1.34619L348.886 1.34436L350.151 4.4006L351.415 7.45673L351.445 4.4006L351.474 1.34436H352.62H353.766L355.084 3.59391L356.402 5.84358L356.432 3.59391L356.462 1.34436H357.236H358.009V4.61003V7.8757L356.93 7.84297L355.851 7.81024L354.464 5.43652C353.702 4.13098 353.04 3.06245 352.995 3.06188C352.949 3.06142 352.911 4.14391 352.911 5.46742V7.87387L351.403 7.84205L349.894 7.81024L349.609 7.09201L349.324 6.3739L347.714 6.40537L346.105 6.43696L345.834 7.15221L345.562 7.86746H344.381C342.288 7.86746 341.383 7.36323 340.994 5.98034C340.7 4.93641 340.811 3.49252 341.246 2.69556C341.78 1.71812 342.595 1.3653 344.351 1.35203L345.376 1.34436V2.031ZM311.152 3.69336C310.897 4.35895 310.689 4.95244 310.689 5.01217C310.689 5.07283 311.13 5.12089 311.686 5.12089C312.235 5.12089 312.684 5.07786 312.684 5.02533C312.684 4.87816 311.803 2.67851 311.703 2.57482C311.654 2.52447 311.406 3.02778 311.152 3.69336ZM347.528 2.90029C347.43 3.14599 347.205 3.70652 347.028 4.14597C346.85 4.58543 346.705 4.98448 346.705 5.03289C346.705 5.0813 347.179 5.12089 347.758 5.12089C348.337 5.12089 348.811 5.09995 348.811 5.07431C348.811 4.99581 347.814 2.56555 347.758 2.50776C347.729 2.47801 347.626 2.6547 347.528 2.90029ZM332.964 3.46151V4.20537H334.135C335.598 4.20537 335.95 4.04824 335.954 3.39341C335.957 2.82694 335.683 2.71764 334.257 2.71764H332.964V3.46151ZM344.378 3.91172C344.378 4.13327 343.764 5.34977 343.652 5.34977C343.461 5.34977 343.35 4.77963 343.442 4.2722C343.512 3.88516 343.541 3.86205 343.947 3.86205C344.184 3.86205 344.378 3.88436 344.378 3.91172ZM319.213 11.8641L318.89 12.1986V15.818C318.89 19.7799 318.915 19.9534 319.528 20.2159C319.755 20.3127 320.787 20.3418 323.141 20.3179L326.437 20.2842L327.173 19.501L327.91 18.7178L328.581 19.4632C328.949 19.8732 329.382 20.2423 329.541 20.2835C329.7 20.3247 330.584 20.3417 331.506 20.3213C333.16 20.2847 333.185 20.2805 333.482 19.9725C333.734 19.7126 333.792 19.5383 333.829 18.9232L333.875 18.1855L334.832 18.1064C335.359 18.063 336.052 17.9339 336.371 17.8198L336.953 17.6122V18.608C336.953 20.1416 337.245 20.3923 338.952 20.3244C339.934 20.2854 339.973 20.2733 340.287 19.9105C340.579 19.5732 340.61 19.4588 340.61 18.7375V17.9382H340.998H341.386L341.386 18.5962C341.386 19.3638 341.646 19.9865 342.051 20.1939C342.263 20.3025 343.804 20.3297 348.645 20.31L354.962 20.2842L355.591 19.9797C356.084 19.7409 356.232 19.7087 356.278 19.8306C356.309 19.9162 356.495 20.0715 356.691 20.1759C357.188 20.4415 360.91 20.3629 361.659 20.0708C362.349 19.8015 362.831 19.3903 363.182 18.772C363.432 18.3323 363.491 18.0704 363.528 17.2596C363.569 16.3404 363.55 16.2369 363.229 15.6105C362.915 14.9978 362.9 14.9219 363.052 14.6982C363.172 14.5217 363.218 14.1414 363.218 13.3264C363.218 12.2249 363.21 12.1906 362.884 11.8539L362.55 11.5093L360.307 11.548C358.113 11.586 358.053 11.5934 357.539 11.8931L357.013 12.1996L356.68 11.8562L356.348 11.5127L354.103 11.5497C352.09 11.583 351.812 11.6114 351.405 11.8252L350.951 12.0636L350.651 11.7965C350.353 11.5317 350.327 11.5296 347.484 11.5296H344.617L344.293 11.8107C344.108 11.9721 343.927 12.0497 343.869 11.9928C343.814 11.9382 343.498 11.8118 343.167 11.7116C342.696 11.5693 342.027 11.5296 340.098 11.5296C337.665 11.5296 337.626 11.5333 337.326 11.7996L337.022 12.0698L336.517 11.8282C336.045 11.603 335.793 11.5844 332.764 11.5504L329.518 11.514L328.729 12.3075L327.941 13.101L327.209 12.3153L326.478 11.5296H323.008H319.537L319.213 11.8641ZM327.001 13.7305L327.964 14.7911L328.921 13.7325L329.879 12.674H332.62C335.721 12.674 336.288 12.7685 336.776 13.3677C337.198 13.8861 337.34 14.5464 337.191 15.2966C336.949 16.5139 336.314 16.8713 334.197 16.9819L332.742 17.0579V18.1275V19.1971L331.274 19.1954L329.805 19.194L328.868 18.0914L327.93 16.9889L326.928 18.0958L325.927 19.2027L322.962 19.1999L319.998 19.1971V15.9355V12.674L323.018 12.6719L326.037 12.6697L327.001 13.7305ZM342.877 12.8009C343.118 12.8699 343.479 13.0962 343.68 13.3037C344.011 13.6446 344.046 13.7456 344.045 14.3505C344.045 15.0949 343.809 15.619 343.327 15.9449L343.041 16.1383L343.419 16.4031C343.905 16.7443 343.948 16.8695 344.018 18.1385L344.076 19.1971H343.285H342.494V18.2764C342.494 17.4514 342.466 17.3264 342.222 17.0748C341.966 16.8104 341.878 16.7938 340.726 16.7938H339.502V17.9954V19.1971H338.782H338.061V15.9355V12.674L340.25 12.6746C341.497 12.675 342.627 12.7293 342.877 12.8009ZM350.03 13.3034V13.9328H348.257H346.484V14.5622V15.1916H348.202H349.919V15.8211V16.4505H348.202H346.484V17.1371V17.8238H348.257H350.03V18.5104V19.1971H347.537H345.043V15.9355V12.674H347.537H350.03V13.3034ZM355.904 13.3606V14.0472H354.263C352.493 14.0472 352.357 14.0894 352.357 14.6383C352.357 15.0718 352.555 15.148 353.906 15.2355C355.698 15.3515 356.236 15.7903 356.236 17.1371C356.236 17.966 355.963 18.4883 355.339 18.8511C354.882 19.116 354.726 19.1373 352.939 19.1787L351.027 19.223V18.5233V17.8238H352.653C354.415 17.8238 354.685 17.739 354.685 17.1847C354.685 16.714 354.441 16.6033 353.256 16.5359C351.414 16.431 350.861 15.9885 350.861 14.6194C350.861 13.6841 351.063 13.3232 351.805 12.9314C352.252 12.6956 352.445 12.674 354.099 12.674H355.904V13.3606ZM362.11 13.3606V14.0472H360.469C358.738 14.0472 358.563 14.0958 358.563 14.577C358.563 15.0455 358.807 15.1512 360.071 15.2311C361.915 15.3476 362.441 15.7714 362.442 17.139C362.442 17.9659 362.168 18.4886 361.544 18.8511C361.088 19.116 360.932 19.1373 359.145 19.1787L357.233 19.223V18.5233V17.8238H358.888C360.679 17.8238 360.891 17.7572 360.891 17.1943C360.891 16.7134 360.652 16.6036 359.462 16.5359C357.62 16.431 357.067 15.9885 357.067 14.6194C357.067 13.6841 357.269 13.3232 358.011 12.9314C358.458 12.6956 358.651 12.674 360.305 12.674H362.11V13.3606ZM330.008 14.6523L328.88 15.9245L329.418 16.5594C329.714 16.9086 330.256 17.5291 330.624 17.9382L331.291 18.6821L331.296 16.0213C331.299 14.5579 331.264 13.3649 331.218 13.3703C331.173 13.3757 330.628 13.9525 330.008 14.6523ZM321.438 14.5622V15.1916H323.101H324.763V15.818V16.4444L323.128 16.476L321.494 16.5077L321.461 17.1657L321.427 17.8238H323.354H325.281L326.127 16.8643L326.973 15.9048L326.131 14.9188L325.29 13.9328H323.364H321.438V14.5622ZM332.742 14.7911V15.6494H333.913C334.557 15.6494 335.183 15.5948 335.304 15.528C335.817 15.2442 335.767 14.3182 335.225 14.063C335.073 13.9914 334.452 13.9328 333.845 13.9328H332.742V14.7911ZM339.502 14.7339V15.5546L340.787 15.5162C341.98 15.4805 342.086 15.4586 342.283 15.2076C342.399 15.059 342.494 14.8458 342.494 14.7339C342.494 14.622 342.399 14.4088 342.283 14.2602C342.086 14.0091 341.98 13.9873 340.787 13.9516L339.502 13.9131V14.7339Z" fill="#45445B"></path><path d="M392.543 0.206787H394.574V12.2062H392.543V0.206787Z" fill="#45445B"></path><path d="M395.866 0.206787H396.789V12.2062H395.866V0.206787Z" fill="#45445B"></path><path d="M398.451 0.206787H400.112V12.2062H398.451V0.206787Z" fill="#45445B"></path><path d="M401.589 0.206787H402.697V12.2062H401.589V0.206787Z" fill="#45445B"></path><path d="M404.174 0.206787H406.758V12.2062H404.174V0.206787Z" fill="#45445B"></path><path d="M418.573 0.206787H420.788V12.2062H418.573V0.206787Z" fill="#45445B"></path><path d="M408.604 0.206787H410.266V12.2062H408.604V0.206787Z" fill="#45445B"></path><path d="M422.265 0.206787H423.742V12.2062H422.265V0.206787Z" fill="#45445B"></path><path d="M411.927 0.206787H413.219V12.2062H411.927V0.206787Z" fill="#45445B"></path><path d="M425.219 0.206787H426.326V12.2062H425.219V0.206787Z" fill="#45445B"></path><path d="M415.25 0.206787H416.542V12.2062H415.25V0.206787Z" fill="#45445B"></path><path d="M427.988 0.206787H430.018V12.2062H427.988V0.206787Z" fill="#45445B"></path><path d="M396.526 16.9867C396.837 17.0874 397.083 17.2569 397.265 17.4954C397.447 17.7285 397.538 18.02 397.538 18.3697C397.538 18.8519 397.351 19.2255 396.976 19.4904C396.601 19.75 396.055 19.8799 395.338 19.8799H392.543V14.3161H395.177C395.841 14.3161 396.352 14.4459 396.711 14.7055C397.07 14.9599 397.249 15.3122 397.249 15.7626C397.249 16.0382 397.185 16.2819 397.056 16.4939C396.928 16.7058 396.751 16.8701 396.526 16.9867ZM393.587 15.1268V16.6608H395.065C395.429 16.6608 395.707 16.5972 395.9 16.47C396.098 16.3376 396.197 16.1468 396.197 15.8978C396.197 15.6434 396.098 15.4527 395.9 15.3255C395.707 15.193 395.429 15.1268 395.065 15.1268H393.587ZM395.274 19.0691C396.082 19.0691 396.486 18.8015 396.486 18.2664C396.486 17.7312 396.082 17.4636 395.274 17.4636H393.587V19.0691H395.274Z" fill="#45445B"></path><path d="M402.081 19.9594C401.508 19.9594 400.992 19.8375 400.531 19.5937C400.071 19.3447 399.709 19.0029 399.447 18.5684C399.185 18.1286 399.054 17.6384 399.054 17.098C399.054 16.5575 399.185 16.07 399.447 15.6355C399.709 15.1957 400.071 14.8539 400.531 14.6101C400.992 14.3611 401.508 14.2366 402.081 14.2366C402.654 14.2366 403.17 14.3611 403.631 14.6101C404.091 14.8539 404.452 15.193 404.715 15.6275C404.977 16.062 405.108 16.5522 405.108 17.098C405.108 17.6437 404.977 18.1339 404.715 18.5684C404.452 19.0029 404.091 19.3447 403.631 19.5937C403.17 19.8375 402.654 19.9594 402.081 19.9594ZM402.081 19.0532C402.456 19.0532 402.793 18.9711 403.093 18.8068C403.393 18.6373 403.628 18.4041 403.799 18.1074C403.971 17.8054 404.056 17.4689 404.056 17.098C404.056 16.727 403.971 16.3932 403.799 16.0965C403.628 15.7944 403.393 15.5613 403.093 15.397C402.793 15.2275 402.456 15.1427 402.081 15.1427C401.706 15.1427 401.369 15.2275 401.069 15.397C400.769 15.5613 400.534 15.7944 400.363 16.0965C400.191 16.3932 400.106 16.727 400.106 17.098C400.106 17.4689 400.191 17.8054 400.363 18.1074C400.534 18.4041 400.769 18.6373 401.069 18.8068C401.369 18.9711 401.706 19.0532 402.081 19.0532Z" fill="#45445B"></path><path d="M407.018 14.3161H408.062V19.0056H411.001V19.8799H407.018V14.3161Z" fill="#45445B"></path><path d="M416.844 19.0135V19.8799H412.628V14.3161H416.731V15.1824H413.672V16.629H416.386V17.4795H413.672V19.0135H416.844Z" fill="#45445B"></path><path d="M419.95 15.1904H418.088V14.3161H422.857V15.1904H420.994V19.8799H419.95V15.1904Z" fill="#45445B"></path><path d="M426.991 19.9594C426.418 19.9594 425.902 19.8375 425.441 19.5937C424.981 19.3447 424.62 19.0029 424.357 18.5684C424.095 18.1286 423.964 17.6384 423.964 17.098C423.964 16.5575 424.095 16.07 424.357 15.6355C424.62 15.1957 424.981 14.8539 425.441 14.6101C425.902 14.3611 426.418 14.2366 426.991 14.2366C427.564 14.2366 428.081 14.3611 428.541 14.6101C429.001 14.8539 429.363 15.193 429.625 15.6275C429.887 16.062 430.018 16.5522 430.018 17.098C430.018 17.6437 429.887 18.1339 429.625 18.5684C429.363 19.0029 429.001 19.3447 428.541 19.5937C428.081 19.8375 427.564 19.9594 426.991 19.9594ZM426.991 19.0532C427.366 19.0532 427.703 18.9711 428.003 18.8068C428.303 18.6373 428.538 18.4041 428.71 18.1074C428.881 17.8054 428.966 17.4689 428.966 17.098C428.966 16.727 428.881 16.3932 428.71 16.0965C428.538 15.7944 428.303 15.5613 428.003 15.397C427.703 15.2275 427.366 15.1427 426.991 15.1427C426.616 15.1427 426.279 15.2275 425.979 15.397C425.68 15.5613 425.444 15.7944 425.273 16.0965C425.101 16.3932 425.016 16.727 425.016 17.098C425.016 17.4689 425.101 17.8054 425.273 18.1074C425.444 18.4041 425.68 18.6373 425.979 18.8068C426.279 18.9711 426.616 19.0532 426.991 19.0532Z" fill="#45445B"></path><path d="M484.749 3.37686C483.273 3.76546 482.133 4.93279 481.753 6.44516C481.645 6.87228 481.642 7.04188 481.642 13.0231C481.642 18.4173 481.652 19.1728 481.725 19.2461C481.871 19.3948 482.027 19.4116 482.18 19.2951L482.324 19.1863L482.351 12.9845L482.378 6.78271L482.505 6.42637C482.678 5.93912 482.789 5.72878 483.084 5.32904C483.554 4.69324 484.29 4.23675 485.12 4.06576C485.499 3.98772 485.864 3.97791 487.65 3.99797C489.563 4.01942 489.764 4.03073 490.07 4.1336C491.244 4.52968 492.104 5.44771 492.421 6.64414C492.502 6.95004 492.516 7.25943 492.516 8.69493C492.516 10.5954 492.492 10.7676 492.121 11.5206C491.837 12.0979 491.243 12.705 490.691 12.9822C489.904 13.3771 489.981 13.3687 486.945 13.3918L484.207 13.4127L484.097 13.5555C483.958 13.7353 483.958 13.7985 484.101 13.9834L484.216 14.1322L487.058 14.1144C489.865 14.0969 489.905 14.095 490.282 13.9677C491.429 13.5797 492.31 12.8171 492.812 11.7757C493.212 10.9463 493.225 10.8481 493.225 8.69493C493.225 7.01024 493.213 6.7402 493.126 6.42565C492.692 4.86977 491.588 3.76867 490.069 3.37487C489.67 3.27149 489.47 3.26335 487.398 3.26617C485.363 3.26895 485.121 3.27909 484.749 3.37686Z" fill="#45445B" fill-opacity="0.5"></path><path d="M493.561 3.3645C493.428 3.5131 493.445 3.79267 493.592 3.89737C493.689 3.96643 493.882 3.98373 494.559 3.984C495.025 3.98417 495.5 4.011 495.616 4.04359C495.731 4.07623 495.933 4.20394 496.065 4.32743C496.13 4.3886 496.185 4.43546 496.231 4.49001C496.479 4.78514 496.468 5.30546 496.468 9.53641C496.468 13.8866 496.47 13.9623 496.577 14.0713C496.717 14.2135 496.929 14.2129 497.069 14.0701C497.178 13.9591 497.179 13.9112 497.164 9.31725L497.15 4.6765L496.997 4.36112C496.801 3.95513 496.347 3.52978 495.948 3.37791C495.684 3.27715 495.525 3.26313 494.649 3.26313C493.751 3.26313 493.642 3.27332 493.561 3.3645Z" fill="#45445B" fill-opacity="0.5"></path><path d="M496.158 0.675483C495.556 1.28844 495.556 1.30335 496.193 1.9509C496.654 2.41937 496.69 2.44481 496.861 2.41139C496.989 2.38611 497.162 2.25104 497.463 1.94009C498.042 1.34265 498.041 1.28384 497.435 0.670716C496.822 0.051269 496.772 0.0514353 496.158 0.675483Z" fill="#45445B" fill-opacity="0.5"></path><path d="M499.333 3.38634C499.217 3.55434 499.226 3.7399 499.357 3.87282C499.458 3.97497 499.54 3.98378 500.406 3.985C500.462 3.98508 500.515 3.98507 500.566 3.98506C501.08 3.98495 501.413 3.98488 501.721 4.07618C502.291 4.24563 502.771 4.72979 504.142 6.11253C504.216 6.18713 504.292 6.26436 504.372 6.34429C505.562 7.54366 506.393 8.33837 506.531 8.40854C506.869 8.58141 507.243 8.61328 507.621 8.5016C507.935 8.40892 507.985 8.36342 509.904 6.4256L509.981 6.34831C511.539 4.77497 512.06 4.24835 512.679 4.07216C512.99 3.98352 513.325 3.98357 513.829 3.98366L513.879 3.98367C514.706 3.98367 514.837 3.93501 514.837 3.62883C514.837 3.29549 514.744 3.26313 513.786 3.26313C512.773 3.26313 512.506 3.31185 511.894 3.6081C511.44 3.82748 511.389 3.87426 509.488 5.79689C507.686 7.61926 507.53 7.7637 507.325 7.79164C507.203 7.80821 507.035 7.80439 506.951 7.78316C506.848 7.75739 506.154 7.09465 504.862 5.78974C502.812 3.71807 502.672 3.60256 501.954 3.3793C501.628 3.27804 501.442 3.26313 500.499 3.26313C499.444 3.26313 499.416 3.26606 499.333 3.38634Z" fill="#45445B" fill-opacity="0.5"></path><path d="M506.864 8.80877C506.75 8.83709 506.579 8.90067 506.482 8.95005C506.386 8.99949 505.436 9.91985 504.372 10.9953C503.066 12.3149 502.357 12.9915 502.192 13.0761C501.749 13.3024 501.453 13.3494 500.468 13.3501C499.608 13.3507 499.524 13.3596 499.392 13.4657C499.196 13.6221 499.199 13.8572 499.398 14.0176C499.543 14.1344 499.582 14.1375 500.584 14.1118L500.642 14.1103C501.262 14.0945 501.659 14.0844 502.022 13.9675C502.666 13.7601 503.205 13.2169 504.701 11.7107L504.781 11.6301C505.83 10.5734 506.749 9.66772 506.823 9.61755C506.989 9.50515 507.325 9.4995 507.522 9.60581C507.603 9.64954 508.467 10.4996 509.441 11.4947C510.415 12.4899 511.354 13.4032 511.527 13.5244C511.7 13.6456 512.007 13.8106 512.208 13.8911C512.549 14.027 512.649 14.0391 513.601 14.0597C514.52 14.0795 514.637 14.0717 514.732 13.9848C514.868 13.8591 514.866 13.6023 514.728 13.4616C514.629 13.3608 514.546 13.3507 513.815 13.3501L513.745 13.3501C513.274 13.3499 512.959 13.3497 512.667 13.267C512.081 13.1008 511.586 12.6012 510.096 11.0978L509.986 10.9861C507.953 8.93503 507.848 8.84873 507.315 8.78616C507.18 8.7703 506.977 8.7805 506.864 8.80877Z" fill="#45445B" fill-opacity="0.5"></path><path d="M460.745 8.02981C460.065 8.72608 459.461 9.39408 459.377 9.54218C458.916 10.3592 458.898 11.4011 459.331 12.2904C459.448 12.5296 459.77 12.8979 460.711 13.8676L461.938 15.1327L462.865 15.1147C462.918 15.1137 462.969 15.1128 463.018 15.112C463.391 15.1058 463.639 15.1016 463.868 15.0336C464.322 14.8989 464.705 14.5137 465.844 13.3659C465.92 13.2898 465.998 13.2104 466.081 13.1276C467.656 11.5422 467.727 11.4796 468.004 11.4128C468.325 11.3356 468.709 11.3727 468.969 11.5058C469.059 11.5521 469.845 12.309 470.714 13.1877C470.765 13.2392 470.814 13.2893 470.863 13.338L470.863 13.3382C472.036 14.5249 472.414 14.907 472.863 15.0378C473.076 15.1 473.305 15.1054 473.643 15.1134L473.645 15.1135C473.665 15.1139 473.686 15.1144 473.708 15.115L473.733 15.1156L474.518 15.1352L475.661 13.9797C476.878 12.7487 477.165 12.3775 477.337 11.8108C477.472 11.3663 477.482 10.6156 477.359 10.1877C477.169 9.53187 476.985 9.28278 475.747 8.01235L474.566 6.80028L473.73 6.82001C473.002 6.83719 472.859 6.85598 472.624 6.9654C472.417 7.06195 471.981 7.46745 470.744 8.71399C469.741 9.72447 469.051 10.3768 468.915 10.4426C468.625 10.5835 468.06 10.5858 467.798 10.4471C467.693 10.3916 466.896 9.62809 466.026 8.75035C464.83 7.54227 464.373 7.11638 464.146 6.99793C463.86 6.84867 463.802 6.84002 462.904 6.81203L461.962 6.78271L460.745 8.02981Z" fill="#45445B"></path><path d="M467.852 1.60122C467.509 1.64761 467.085 1.80352 466.749 2.00699C466.621 2.08426 465.671 3.00955 464.637 4.06321L462.757 5.97903L463.056 5.97947C463.543 5.98013 464.039 6.08384 464.446 6.27013C464.797 6.4312 464.952 6.57093 466.435 8.06522C467.32 8.95643 468.108 9.71051 468.187 9.74088C468.266 9.77131 468.389 9.78206 468.46 9.76482C468.53 9.74753 469.287 9.02859 470.142 8.16715C470.996 7.30571 471.818 6.52243 471.968 6.42654C472.347 6.18405 472.858 6.03445 473.309 6.03445C473.576 6.03445 473.685 6.01411 473.685 5.96428C473.685 5.92571 472.844 5.04525 471.818 4.00778C470.185 2.35807 469.903 2.09634 469.569 1.92147C468.992 1.61906 468.458 1.51935 467.852 1.60122Z" fill="#45445B"></path><path fill-rule="evenodd" clip-rule="evenodd" d="M493.634 17.7156L493.634 17.9234L493.341 17.9048C492.98 17.8819 492.75 17.9907 492.652 18.2303C492.558 18.4609 492.635 18.7656 492.823 18.9074C492.948 19.0017 493.018 19.0101 493.382 18.9754L493.797 18.9358V18.2218C493.797 17.624 493.784 17.5077 493.716 17.5077C493.658 17.5077 493.634 17.5678 493.634 17.7156ZM494.833 18.2239V18.94L495.184 18.9783C495.653 19.0293 495.927 18.9054 495.999 18.61C496.06 18.3588 496.012 18.1545 495.854 18.0025C495.747 17.8986 495.689 17.8881 495.365 17.9146L494.997 17.9447V17.7262C494.997 17.569 494.974 17.5077 494.915 17.5077C494.846 17.5077 494.833 17.6243 494.833 18.2239ZM506.835 17.5626C506.298 17.6917 506.113 18.445 506.522 18.8357C506.678 18.9844 507.039 19.0356 507.424 18.9638C507.637 18.9242 507.669 18.8997 507.669 18.781C507.669 18.6597 507.651 18.6471 507.506 18.6709C507.416 18.6857 507.224 18.6979 507.079 18.6981C506.759 18.6984 506.661 18.5928 506.661 18.2486C506.661 17.9261 506.79 17.8403 507.273 17.8403C507.625 17.8403 507.642 17.8343 507.642 17.7087C507.642 17.6056 507.605 17.5695 507.472 17.5424C507.262 17.4997 507.071 17.5057 506.835 17.5626ZM514.347 18.9488H514.51H514.674V18.2283V17.5077H514.51H514.347V18.2283V18.9488ZM498.213 18.256V18.9488H498.779C499.244 18.9488 499.367 18.9309 499.467 18.8485C499.625 18.7187 499.628 18.4614 499.474 18.3345C499.374 18.2524 499.37 18.2311 499.44 18.1719C499.525 18.1005 499.547 17.8557 499.479 17.7516C499.389 17.6152 499.176 17.5632 498.707 17.5632H498.213V18.256ZM511.022 17.7572C511.022 17.8588 510.993 17.8957 510.913 17.8957C510.833 17.8957 510.804 17.9327 510.804 18.0343C510.804 18.1359 510.833 18.1729 510.913 18.1729C511.008 18.1729 511.022 18.2098 511.022 18.4777C511.022 18.7087 511.048 18.8094 511.131 18.8934C511.308 19.0737 511.73 19.0305 511.73 18.8321C511.73 18.7497 511.69 18.7271 511.545 18.7271C511.34 18.7271 511.294 18.6607 511.294 18.3657C511.294 18.1906 511.306 18.1785 511.499 18.1623C511.661 18.1487 511.703 18.1224 511.703 18.0343C511.703 17.9462 511.661 17.9199 511.499 17.9063C511.323 17.8915 511.294 17.8701 511.294 17.7538C511.294 17.6465 511.266 17.6186 511.158 17.6186C511.049 17.6186 511.022 17.6463 511.022 17.7572ZM499.166 17.9789C499.166 18.0749 499.125 18.0919 498.853 18.1063C498.548 18.1225 498.54 18.1193 498.54 17.9789C498.54 17.8385 498.548 17.8352 498.853 17.8514C499.125 17.8658 499.166 17.8828 499.166 17.9789ZM484.228 17.9466C484.215 17.9592 484.204 18.2772 484.204 18.6532C484.204 19.2239 484.218 19.3368 484.286 19.3368C484.343 19.3368 484.368 19.2787 484.368 19.1468V18.9569L484.654 18.984C485.046 19.0211 485.303 18.8866 485.37 18.61C485.431 18.3585 485.383 18.1536 485.226 18.0051C485.12 17.9049 485.048 17.8919 484.678 17.9066C484.443 17.9158 484.241 17.9339 484.228 17.9466ZM485.781 18.0577C485.463 18.381 485.628 18.9139 486.068 18.9852C486.35 19.0308 486.638 18.9647 486.766 18.825C486.875 18.706 486.915 18.3441 486.841 18.1476C486.787 18.0035 486.521 17.8957 486.22 17.8957C485.983 17.8957 485.915 17.9208 485.781 18.0577ZM487.081 17.9269C487.026 17.9824 487.437 18.9488 487.515 18.9488C487.557 18.9488 487.673 18.768 487.775 18.547L487.959 18.1451L488.139 18.5479C488.258 18.8124 488.347 18.9454 488.4 18.9354C488.481 18.92 488.826 18.1698 488.834 17.9927C488.841 17.7978 488.738 17.9036 488.617 18.2144C488.607 18.2387 488.598 18.2619 488.59 18.2841C488.49 18.5405 488.444 18.661 488.396 18.6612C488.354 18.6614 488.312 18.5666 488.232 18.3877L488.231 18.3843L488.229 18.3812C488.222 18.3657 488.215 18.3496 488.208 18.3329C488.107 18.1087 487.999 17.9163 487.967 17.9055C487.935 17.8947 487.832 18.0627 487.738 18.2788C487.644 18.4949 487.55 18.6717 487.528 18.6717C487.506 18.6717 487.433 18.5228 487.366 18.3409C487.248 18.0198 487.142 17.865 487.081 17.9269ZM489.285 17.9538C489.119 18.0214 488.984 18.3549 489.031 18.5805C489.079 18.8091 489.193 18.9341 489.394 18.9791C489.622 19.03 490.146 18.9566 490.146 18.8737C490.146 18.8256 490.039 18.8128 489.77 18.8282C489.444 18.847 489.379 18.8344 489.279 18.7331C489.216 18.6688 489.164 18.5913 489.164 18.5608C489.164 18.5278 489.373 18.5054 489.682 18.5054C490.16 18.5054 490.2 18.4969 490.2 18.3972C490.2 18.2181 490.087 18.0226 489.946 17.9573C489.788 17.8841 489.46 17.8824 489.285 17.9538ZM490.528 18.4361C490.527 18.7413 490.549 18.9488 490.582 18.9488C490.613 18.9488 490.636 18.7753 490.636 18.5391C490.636 18.0942 490.658 18.062 490.968 18.062C491.071 18.062 491.127 18.0336 491.127 17.9804C491.127 17.917 491.06 17.9016 490.827 17.9111L490.528 17.9234L490.528 18.4361ZM491.402 18.0511C491.267 18.188 491.236 18.2649 491.237 18.4596C491.239 18.7175 491.303 18.8379 491.491 18.9398C491.698 19.0517 492.326 18.9998 492.326 18.8708C492.326 18.8264 492.211 18.8132 491.954 18.828C491.659 18.845 491.563 18.8302 491.49 18.7566C491.291 18.5542 491.369 18.5054 491.89 18.5054H492.38V18.3453C492.38 18.0736 492.223 17.9377 491.874 17.9083C491.589 17.8843 491.556 17.8944 491.402 18.0511ZM496.178 17.9324C496.158 17.9526 496.252 18.1799 496.387 18.4375C496.522 18.6951 496.632 18.9366 496.632 18.9742C496.632 19.0874 496.442 19.226 496.287 19.226C496.117 19.226 496.093 19.3138 496.249 19.3643C496.484 19.4399 496.648 19.2763 496.97 18.644C497.285 18.028 497.331 17.8957 497.231 17.8957C497.201 17.8957 497.085 18.0828 496.974 18.3114C496.862 18.5401 496.758 18.7269 496.743 18.7267C496.727 18.7264 496.616 18.5393 496.496 18.311C496.281 17.8999 496.248 17.8611 496.178 17.9324ZM500.011 18.0066C500.011 18.0999 500.048 18.1175 500.243 18.1182C500.553 18.1192 500.72 18.1695 500.72 18.2625C500.72 18.3197 500.632 18.3391 500.374 18.3391C499.926 18.3391 499.764 18.4949 499.882 18.81C499.939 18.9601 500.16 19.0081 500.617 18.9694L501.047 18.9329L501.046 18.539C501.046 18.3224 501.027 18.1177 501.005 18.0842C500.922 17.957 500.715 17.8957 500.369 17.8957C500.048 17.8957 500.011 17.907 500.011 18.0066ZM501.398 17.9449C501.385 17.9585 501.374 18.1899 501.374 18.4592V18.9488H501.537H501.701V18.5945C501.701 18.2064 501.729 18.1729 502.049 18.1729C502.296 18.1729 502.355 18.2601 502.355 18.6274C502.355 18.9333 502.362 18.9488 502.491 18.9488C502.625 18.9488 502.628 18.9396 502.628 18.5331C502.628 17.9445 502.569 17.8933 501.917 17.9086C501.645 17.915 501.412 17.9313 501.398 17.9449ZM503.145 17.9627C502.963 18.0693 502.904 18.189 502.902 18.4577C502.9 18.7888 503.021 18.9462 503.309 18.9854C503.592 19.0237 503.903 18.9405 503.926 18.8206C503.941 18.7411 503.894 18.7271 503.611 18.7271C503.307 18.7271 503.275 18.7154 503.227 18.5886C503.113 18.2838 503.35 18.0809 503.731 18.1562C503.864 18.1824 503.881 18.1692 503.881 18.0408C503.881 17.9009 503.87 17.8958 503.568 17.8974C503.395 17.8983 503.205 17.9277 503.145 17.9627ZM504.337 17.9477C504.176 18.0177 504.045 18.2229 504.045 18.4033C504.045 18.8348 504.334 19.0407 504.862 18.9857C505.245 18.9458 505.407 18.7798 505.407 18.4289C505.407 18.0785 505.234 17.9333 504.792 17.9126C504.606 17.904 504.401 17.9197 504.337 17.9477ZM508.02 18.0577C507.892 18.1876 507.86 18.2681 507.86 18.463C507.86 18.8935 508.124 19.0483 508.735 18.9762C509.001 18.9448 509.059 18.9195 509.059 18.8349C509.059 18.7446 509.007 18.7298 508.638 18.7156C508.287 18.7021 508.213 18.6831 508.198 18.6024C508.181 18.5161 508.231 18.5054 508.647 18.5054C509.112 18.5054 509.114 18.505 509.114 18.3626C509.114 18.2786 509.048 18.153 508.955 18.0577C508.816 17.9169 508.755 17.8957 508.487 17.8957C508.219 17.8957 508.158 17.9169 508.02 18.0577ZM509.386 18.4358V18.9488H509.547C509.708 18.9488 509.708 18.9484 509.725 18.5747L509.741 18.2006H510.013H510.286L510.302 18.5747C510.318 18.9484 510.318 18.9488 510.479 18.9488H510.64V18.5584C510.64 18.2191 510.623 18.1502 510.508 18.0337C510.386 17.9094 510.34 17.9004 509.881 17.9111L509.386 17.9227V18.4358ZM511.973 17.944C511.96 17.9581 511.948 18.1899 511.948 18.4592V18.9488H512.109C512.27 18.9488 512.27 18.9484 512.286 18.5747L512.303 18.2006L512.521 18.1729C512.693 18.1509 512.739 18.122 512.739 18.0343C512.739 17.9346 512.701 17.9232 512.369 17.9209C512.165 17.9195 511.987 17.9299 511.973 17.944ZM512.984 18.0066C512.984 18.0999 513.02 18.1175 513.216 18.1182C513.526 18.1192 513.692 18.1695 513.692 18.2625C513.692 18.3197 513.605 18.3391 513.347 18.3391C512.899 18.3391 512.736 18.4949 512.855 18.81C512.912 18.9601 513.133 19.0081 513.589 18.9694L514.019 18.9329L514.019 18.539C514.018 18.3224 514 18.1177 513.978 18.0842C513.894 17.957 513.688 17.8957 513.342 17.8957C513.02 17.8957 512.984 17.907 512.984 18.0066ZM489.991 18.1857C490.076 18.3222 490.032 18.3391 489.594 18.3391H489.151L489.232 18.2144C489.366 18.0097 489.869 17.9907 489.991 18.1857ZM492.149 18.1317C492.186 18.1618 492.217 18.2208 492.217 18.2628C492.217 18.3209 492.119 18.3391 491.808 18.3391C491.583 18.3391 491.4 18.3205 491.4 18.2976C491.405 18.0682 491.926 17.9527 492.149 18.1317ZM485.14 18.1537C485.276 18.2791 485.27 18.5857 485.128 18.7298C485.037 18.8227 484.96 18.8404 484.706 18.8268L484.395 18.8103L484.378 18.4829C484.367 18.2584 484.384 18.141 484.433 18.1096C484.562 18.0263 485.034 18.0557 485.14 18.1537ZM486.586 18.1056C486.705 18.183 486.768 18.4384 486.707 18.6013C486.632 18.8012 486.568 18.8361 486.274 18.8371C485.939 18.8383 485.785 18.7211 485.785 18.4651C485.785 18.1709 485.909 18.0618 486.243 18.0628C486.396 18.0633 486.55 18.0825 486.586 18.1056ZM493.634 18.4158C493.634 18.8134 493.609 18.8358 493.16 18.8372C492.899 18.8381 492.762 18.7 492.762 18.4376C492.762 18.1787 492.931 18.062 493.307 18.062H493.634V18.4158ZM495.769 18.1537C495.905 18.2791 495.899 18.5857 495.757 18.7298C495.666 18.8227 495.589 18.8404 495.335 18.8268L495.024 18.8103L495.007 18.4829C494.996 18.2584 495.013 18.141 495.062 18.1096C495.191 18.0263 495.663 18.0557 495.769 18.1537ZM504.959 18.2037C505.093 18.2988 505.123 18.5504 505.015 18.6606C504.979 18.6972 504.849 18.7271 504.726 18.7271C504.465 18.7271 504.372 18.6523 504.372 18.4421C504.372 18.274 504.543 18.1174 504.726 18.1174C504.788 18.1174 504.893 18.1563 504.959 18.2037ZM508.701 18.1511C508.878 18.2205 508.777 18.2837 508.487 18.2837C508.209 18.2837 508.095 18.2199 508.255 18.1541C508.354 18.1137 508.6 18.112 508.701 18.1511ZM499.239 18.5265C499.267 18.6725 499.157 18.7253 498.826 18.7263C498.543 18.7271 498.54 18.7251 498.54 18.5582V18.3893L498.88 18.4058C499.162 18.4195 499.223 18.44 499.239 18.5265ZM500.654 18.5409C500.817 18.5855 500.781 18.6817 500.58 18.7387C500.379 18.7956 500.175 18.7494 500.175 18.647C500.175 18.5324 500.422 18.4777 500.654 18.5409ZM513.627 18.5409C513.79 18.5855 513.754 18.6817 513.553 18.7387C513.352 18.7955 513.147 18.7495 513.147 18.6475C513.147 18.5212 513.371 18.4714 513.627 18.5409Z" fill="#45445B" fill-opacity="0.5"></path><path d="M468.179 12.1704C468.134 12.187 467.374 12.9279 466.49 13.8167C465.381 14.9306 464.796 15.479 464.605 15.5816C464.209 15.7946 463.755 15.9004 463.235 15.9004C462.986 15.9004 462.783 15.9199 462.783 15.9437C462.783 15.9676 463.648 16.8619 464.705 17.9311C466.281 19.526 466.681 19.9021 466.933 20.025C467.824 20.4599 468.834 20.4407 469.635 19.9737C469.879 19.8318 473.685 16.0435 473.685 15.943C473.685 15.9196 473.543 15.9004 473.369 15.9004C473.195 15.9004 472.913 15.8632 472.741 15.8177C472.084 15.6437 471.945 15.5324 470.278 13.8471C469.408 12.9684 468.628 12.2228 468.544 12.1904C468.379 12.1269 468.307 12.123 468.179 12.1704Z" fill="#45445B"></path></svg>