<svg xmlns="http://www.w3.org/2000/svg" width="200" height="53" viewBox="0 0 200 53" fill="none"><mask id="path-1-outside-1_2069_252" maskUnits="userSpaceOnUse" x="102.762" y="14.2068" width="97" height="39" fill="black"><rect fill="white" x="102.762" y="14.2068" width="97" height="39"></rect><path d="M197.762 51.2068H103.191V14.2555H197.762V51.2068Z"></path></mask><path d="M197.762 51.2068V52.7068C198.59 52.7068 199.262 52.0352 199.262 51.2068H197.762ZM197.762 49.7068H103.191V52.7068H197.762V49.7068ZM196.262 14.2555V51.2068H199.262V14.2555H196.262Z" fill="url(#paint0_linear_2069_252)" mask="url(#path-1-outside-1_2069_252)"></path><mask id="path-3-outside-2_2069_252" maskUnits="userSpaceOnUse" x="0.238281" y="0" width="97" height="39" fill="black"><rect fill="white" x="0.238281" width="97" height="39"></rect><path d="M2.23828 2H96.8087V38.9514H2.23828V2Z"></path></mask><path d="M2.23828 2V0C1.13371 0 0.238281 0.89543 0.238281 2L2.23828 2ZM2.23828 4H96.8087V0H2.23828V4ZM4.23828 38.9514V2H0.238281V38.9514H4.23828Z" fill="url(#paint1_linear_2069_252)" mask="url(#path-3-outside-2_2069_252)"></path><path d="M168.496 38.7578L172.891 13.8388H178.303L174.744 34.1445H187.239L186.44 38.7578H168.496Z" fill="#7873BA"></path><path d="M157.534 38.7578L161.965 13.8388H167.378L162.982 38.7578H157.534Z" fill="#7873BA"></path><path d="M132.131 38.7578L132.53 36.3603L148.296 18.2704H136.635L137.434 13.8388H157.595L157.159 16.2362L141.394 34.2898H154.289L153.49 38.7578H132.131Z" fill="#7873BA"></path><path d="M109.005 38.7578L113.437 13.8388H133.343L132.544 18.2704H118.087L117.106 23.8282H129.929L129.166 28.2235H116.307L115.253 34.2898H129.965L129.166 38.7578H109.005Z" fill="#DCDAF8"></path><path d="M82.7905 38.7578L87.2222 13.8388H99.8633C101.462 13.8388 102.818 14.0688 103.932 14.529C105.046 14.9649 105.905 15.6066 106.511 16.4542C107.116 17.2775 107.419 18.2947 107.419 19.5055C107.419 20.5226 107.189 21.467 106.729 22.3388C106.269 23.1864 105.651 23.9008 104.876 24.482C104.101 25.0632 103.217 25.4628 102.224 25.6807V25.8261C103.314 26.1651 104.222 26.7826 104.949 27.6786C105.675 28.5746 106.039 29.7249 106.039 31.1295C106.039 32.8489 105.615 34.2777 104.767 35.4159C103.944 36.5298 102.854 37.3653 101.498 37.9223C100.166 38.4793 98.713 38.7578 97.1389 38.7578H82.7905ZM89.0384 34.3261H96.6667C97.369 34.3261 98.0107 34.205 98.5919 33.9629C99.1974 33.7207 99.6696 33.3332 100.009 32.8005C100.348 32.2677 100.517 31.6017 100.517 30.8026C100.517 29.9792 100.263 29.3375 99.7543 28.8774C99.27 28.393 98.4951 28.1509 97.4295 28.1509H90.0919L89.0384 34.3261ZM90.891 23.9008H98.0471C98.6767 23.9008 99.2216 23.8161 99.6817 23.6465C100.142 23.4528 100.517 23.2106 100.808 22.92C101.098 22.6052 101.316 22.2541 101.462 21.8666C101.631 21.4791 101.716 21.0675 101.716 20.6316C101.716 19.8082 101.474 19.1907 100.989 18.779C100.505 18.3673 99.8633 18.1615 99.0642 18.1615H91.8718L90.891 23.9008Z" fill="#DCDAF8"></path><path d="M54.0342 38.7578L67.9467 13.8388H74.6305L79.825 38.7578H74.2672L73.3228 33.8539H62.3889L59.7372 38.7578H54.0342ZM64.7138 29.4949H72.4873L71.3612 23.4649C71.2886 23.029 71.2159 22.5931 71.1433 22.1572C71.0706 21.7213 70.9859 21.2854 70.889 20.8495C70.8164 20.3894 70.7558 19.9777 70.7074 19.6145C70.659 19.227 70.6105 18.8759 70.5621 18.561H70.3805C70.1383 19.0454 69.8598 19.6024 69.545 20.232C69.2544 20.8374 68.9638 21.4428 68.6732 22.0482C68.3826 22.6294 68.1283 23.1259 67.9104 23.5376L64.7138 29.4949Z" fill="#DCDAF8"></path><path d="M45.5786 38.7578L50.0103 13.8388H55.4227L51.0274 38.7578H45.5786Z" fill="#DCDAF8"></path><path d="M18.7612 38.7578L23.1566 13.8388H32.7827C36.2457 13.8388 38.9216 14.6258 40.8105 16.1999C42.7237 17.774 43.6802 20.2441 43.6802 23.6102C43.6802 24.1914 43.656 24.7726 43.6076 25.3538C43.5591 25.9108 43.4865 26.4799 43.3896 27.0611C42.9537 29.5312 42.1183 31.6381 40.8832 33.3817C39.6724 35.1253 38.1104 36.4572 36.1973 37.3774C34.2841 38.2977 32.0683 38.7578 29.5498 38.7578H18.7612ZM24.9728 34.2898H29.4408C30.5548 34.2898 31.5719 34.1324 32.4921 33.8176C33.4123 33.4785 34.2236 33.0063 34.9259 32.4009C35.6282 31.7955 36.2094 31.0448 36.6695 30.1487C37.1296 29.2285 37.4565 28.1872 37.6503 27.0248C37.7714 26.4436 37.8561 25.9592 37.9045 25.5718C37.9772 25.1843 38.0256 24.8453 38.0498 24.5547C38.0741 24.2641 38.0862 23.9977 38.0862 23.7555C38.0862 22.5447 37.8682 21.5397 37.4323 20.7405C36.9964 19.9172 36.3547 19.2996 35.5071 18.888C34.6837 18.4763 33.6545 18.2704 32.4195 18.2704H27.7698L24.9728 34.2898Z" fill="#DCDAF8"></path><defs><linearGradient id="paint0_linear_2069_252" x1="187.5" y1="26.5" x2="213.071" y2="64.0454" gradientUnits="userSpaceOnUse"><stop stop-color="white" stop-opacity="0"></stop><stop offset="1" stop-color="white"></stop></linearGradient><linearGradient id="paint1_linear_2069_252" x1="12" y1="28.5" x2="-13" y2="-16.5" gradientUnits="userSpaceOnUse"><stop stop-color="white" stop-opacity="0"></stop><stop offset="1" stop-color="white"></stop></linearGradient></defs></svg>